# xmcd
#
# Track frame offsets:
#	150
#	18495
#	35492
#	57484
#	78774
#	97358
#	118750
#	135395
#	149687
#	165329
#	186680
#	208041
#	225208
#	243131
#	263970
#	279552
#	304137
#	325525
#
# Disc length: 4622 seconds
#
# Revision: 0
# Processed by: cddbd v1.4PL0 Copyright (c) Steve Scherf et al.
# Submitted via: EasyCDDAExtractor 4.6.9.1
#
DISCID=00120c12
DTITLE=Special - Turkish
DYEAR=2002
DGENRE=Pop
TTITLE0=Ayna - Týrtýl
TTITLE1=Burcu Güneþ - Çile Bülbülüm
TTITLE2=Emrah - Kabul
TTITLE3=Gülben Ergen - Abayý Yaktým
TTITLE4=Hande Yener - Güvenemiyorum
TTITLE5=Hande Yener - Yalanýn Batsýn
TTITLE6=Hülya Avþar - Yar Senin Derdin Ne
TTITLE7=Mazhar Alanson - Yandým
TTITLE8=Mustafa Sandal - Pazara Kadar
TTITLE9=Nalan - Acemi Balýk
TTITLE10=Nez - Sakýn Ha (Techno)
TTITLE11=Nil Karaibrahimgil - Evlenmek Gerek
TTITLE12=Nil Karaibrahimgil - XL
TTITLE13=Özcan Deniz - Dön Desem
TTITLE14=Petek Dinçöz - Okþa
TTITLE15=Serdar Ortaç - Kabahat
TTITLE16=Sibel Can - And Ýçelim
TTITLE17=Yýldýz Tilbe - Aþk Laftan Anlamazki
EXTD=
EXTT0=
EXTT1=
EXTT2=
EXTT3=
EXTT4=
EXTT5=
EXTT6=
EXTT7=
EXTT8=
EXTT9=
EXTT10=
EXTT11=
EXTT12=
EXTT13=
EXTT14=
EXTT15=
EXTT16=
EXTT17=
PLAYORDER=
